<svg width="40" height="46" viewBox="0 0 40 46" fill="none" xmlns="http://www.w3.org/2000/svg">
<path d="M37.1429 0.241943H2.84821C1.27679 0.241943 0 1.71094 0 3.51426V42.3565C0 44.1598 1.27679 45.6288 2.84821 45.6288H37.1429C38.7143 45.6288 40 44.1598 40 42.3565V3.51426C40 1.71094 38.7143 0.241943 37.1429 0.241943ZM12.0893 39.145H6.16071V17.4849H12.0982V39.145H12.0893ZM9.125 14.5267C7.22321 14.5267 5.6875 12.774 5.6875 10.6262C5.6875 8.47845 7.22321 6.72578 9.125 6.72578C11.0179 6.72578 12.5625 8.47845 12.5625 10.6262C12.5625 12.7841 11.0268 14.5267 9.125 14.5267ZM34.3125 39.145H28.3839V28.6087C28.3839 26.0963 28.3393 22.8645 25.3036 22.8645C22.2143 22.8645 21.7411 25.5998 21.7411 28.4264V39.145H15.8125V17.4849H21.5V20.4432H21.5804C22.375 18.7412 24.3125 16.948 27.1964 16.948C33.1964 16.948 34.3125 21.436 34.3125 27.2715V39.145Z" fill="#0077B5"/>
</svg>
