<svg width="40" height="46" viewBox="0 0 40 46" fill="none" xmlns="http://www.w3.org/2000/svg">
<path d="M20 17.5315C19.0581 17.5319 18.1375 17.8492 17.3546 18.4432C16.5716 19.0372 15.9615 19.8814 15.6013 20.8688C15.2411 21.8563 15.147 22.9428 15.331 23.9909C15.515 25.039 15.9687 26.0017 16.6348 26.7572C17.3009 27.5128 18.1495 28.0272 19.0733 28.2356C19.9971 28.4439 20.9546 28.3368 21.8247 27.9277C22.6949 27.5187 23.4386 26.826 23.9618 25.9374C24.485 25.0488 24.7643 24.0041 24.7643 22.9354C24.7633 21.5022 24.261 20.128 23.3677 19.1147C22.4744 18.1015 21.2631 17.532 20 17.5315ZM31.1348 13.3778C30.8924 12.6806 30.5263 12.0474 30.0592 11.5175C29.5921 10.9875 29.0341 10.5721 28.4196 10.297C26.5446 9.4571 22.0804 9.64554 20 9.64554C17.9196 9.64554 13.4598 9.45001 11.5795 10.297C10.965 10.5721 10.407 10.9875 9.93992 11.5175C9.47285 12.0474 9.10674 12.6806 8.86429 13.3778C8.125 15.5053 8.29018 20.5759 8.29018 22.9344C8.29018 25.2929 8.125 30.3574 8.86786 32.492C9.11031 33.1891 9.47642 33.8223 9.94349 34.3523C10.4106 34.8823 10.9686 35.2977 11.583 35.5728C13.458 36.4127 17.9223 36.2242 20.0036 36.2242C22.0848 36.2242 26.5429 36.4198 28.4232 35.5728C29.0376 35.2977 29.5957 34.8823 30.0628 34.3523C30.5298 33.8223 30.8959 33.1891 31.1384 32.492C31.8839 30.3644 31.7125 25.2939 31.7125 22.9354C31.7125 20.5769 31.8839 15.5134 31.1384 13.3788L31.1348 13.3778ZM20 31.2428C18.552 31.2428 17.1364 30.7556 15.9324 29.8428C14.7284 28.9299 13.79 27.6325 13.2359 26.1145C12.6817 24.5965 12.5368 22.9262 12.8193 21.3147C13.1018 19.7032 13.799 18.223 14.823 17.0612C15.8469 15.8993 17.1514 15.1081 18.5717 14.7876C19.9919 14.467 21.464 14.6316 22.8018 15.2603C24.1396 15.8891 25.2831 16.9539 26.0875 18.32C26.892 19.6862 27.3214 21.2923 27.3214 22.9354C27.3226 24.0267 27.134 25.1076 26.7665 26.1161C26.399 27.1246 25.8597 28.0409 25.1797 28.8126C24.4996 29.5843 23.692 30.1961 22.8032 30.6132C21.9144 31.0302 20.9618 31.2441 20 31.2428ZM27.6232 16.2185C27.2852 16.2187 26.9547 16.1052 26.6735 15.8922C26.3924 15.6793 26.1732 15.3765 26.0437 15.0222C25.9143 14.6679 25.8803 14.278 25.9461 13.9018C26.012 13.5256 26.1746 13.18 26.4136 12.9087C26.6526 12.6374 26.9571 12.4526 27.2886 12.3777C27.6201 12.3028 27.9638 12.3412 28.2761 12.4879C28.5884 12.6346 28.8554 12.8832 29.0432 13.2021C29.231 13.521 29.3313 13.8959 29.3313 14.2795C29.3322 14.5342 29.2888 14.7866 29.2036 15.0222C29.1184 15.2579 28.993 15.4721 28.8346 15.6526C28.6763 15.8331 28.488 15.9764 28.2808 16.0742C28.0735 16.172 27.8513 16.2225 27.6268 16.2226L27.6232 16.2185ZM35.7143 0.241943H4.28571C3.14907 0.241943 2.05898 0.754281 1.25526 1.66625C0.451529 2.57822 0 3.81511 0 5.10482L0 40.7659C0 42.0557 0.451529 43.2926 1.25526 44.2045C2.05898 45.1165 3.14907 45.6288 4.28571 45.6288H35.7143C36.8509 45.6288 37.941 45.1165 38.7447 44.2045C39.5485 43.2926 40 42.0557 40 40.7659V5.10482C40 3.81511 39.5485 2.57822 38.7447 1.66625C37.941 0.754281 36.8509 0.241943 35.7143 0.241943ZM34.1857 29.6218C34.0705 32.2184 33.5482 34.5192 31.8777 36.4096C30.2071 38.3001 28.1813 38.9049 25.8955 39.0285C23.5375 39.1794 16.4679 39.1794 14.1098 39.0285C11.8214 38.8978 9.80089 38.3041 8.12768 36.4096C6.45446 34.5151 5.92857 32.2134 5.81964 29.6218C5.68661 26.9452 5.68661 18.9225 5.81964 16.2489C5.93482 13.6524 6.45089 11.3516 8.12768 9.46115C9.80446 7.57071 11.8304 6.97298 14.1098 6.84938C16.4679 6.69843 23.5375 6.69843 25.8955 6.84938C28.1839 6.98007 30.2107 7.57375 31.8777 9.46825C33.5446 11.3627 34.0768 13.6645 34.1857 16.2611C34.3188 18.9276 34.3188 26.9432 34.1857 29.6218Z" fill="#833AB4"/>
</svg>
