<svg width="40" height="46" viewBox="0 0 40 46" fill="none" xmlns="http://www.w3.org/2000/svg">
<path d="M35.7143 0.241943H4.28571C1.91964 0.241943 0 2.42011 0 5.10482V40.7659C0 43.4507 1.91964 45.6288 4.28571 45.6288H35.7143C38.0804 45.6288 40 43.4507 40 40.7659V5.10482C40 2.42011 38.0804 0.241943 35.7143 0.241943ZM31.3482 16.33C31.3661 16.6136 31.3661 16.9074 31.3661 17.1911C31.3661 25.9747 25.4732 36.0956 14.7054 36.0956C11.3839 36.0956 8.30357 35.0014 5.71429 33.117C6.1875 33.1778 6.64286 33.1981 7.125 33.1981C9.86607 33.1981 12.3839 32.1445 14.3929 30.3614C11.8214 30.3006 9.66072 28.3859 8.91964 25.7518C9.82143 25.9038 10.6339 25.9038 11.5625 25.6302C8.88393 25.0122 6.875 22.3377 6.875 19.1059V19.0248C7.65179 19.5212 8.5625 19.8252 9.51786 19.8657C8.71467 19.2595 8.05623 18.4371 7.60131 17.4719C7.14639 16.5067 6.90914 15.4287 6.91071 14.3342C6.91071 13.0982 7.19643 11.9635 7.70536 10.9808C10.5893 15.0129 14.9196 17.647 19.7768 17.9307C18.9464 13.4224 21.9196 9.76509 25.4911 9.76509C27.1786 9.76509 28.6964 10.5654 29.7679 11.8622C31.0893 11.5785 32.3571 11.0213 33.4821 10.2615C33.0446 11.8014 32.125 13.0982 30.9107 13.9188C32.0893 13.777 33.2321 13.4021 34.2857 12.8854C33.4911 14.2126 32.4911 15.3878 31.3482 16.33Z" fill="#1DA1F2"/>
</svg>
