<svg width="40" height="46" viewBox="0 0 40 46" fill="none" xmlns="http://www.w3.org/2000/svg">
<path d="M16.6786 17.4748L25.1786 22.9557L16.6786 28.4365V17.4748ZM40 5.10482V40.7659C40 43.4507 38.0804 45.6288 35.7143 45.6288H4.28571C1.91964 45.6288 0 43.4507 0 40.7659V5.10482C0 2.42011 1.91964 0.241943 4.28571 0.241943H35.7143C38.0804 0.241943 40 2.42011 40 5.10482ZM36.25 22.9658C36.25 22.9658 36.25 16.9277 35.5714 14.0302C35.1964 12.4295 34.0982 11.1733 32.6964 10.7478C30.1696 9.9677 20 9.9677 20 9.9677C20 9.9677 9.83036 9.9677 7.30357 10.7478C5.90179 11.1733 4.80357 12.4295 4.42857 14.0302C3.75 16.9176 3.75 22.9658 3.75 22.9658C3.75 22.9658 3.75 29.0039 4.42857 31.9013C4.80357 33.502 5.90179 34.7076 7.30357 35.1331C9.83036 35.9031 20 35.9031 20 35.9031C20 35.9031 30.1696 35.9031 32.6964 35.123C34.0982 34.6975 35.1964 33.4919 35.5714 31.8912C36.25 29.0039 36.25 22.9658 36.25 22.9658Z" fill="#FF0000"/>
</svg>
