<svg width="40" height="41" viewBox="0 0 40 41" fill="none" xmlns="http://www.w3.org/2000/svg">
<path d="M35.7143 0.857178H4.28571C3.14907 0.857178 2.05898 1.30871 1.25526 2.11243C0.451529 2.91616 0 4.00625 0 5.14289L0 36.5715C0 37.7081 0.451529 38.7982 1.25526 39.6019C2.05898 40.4057 3.14907 40.8572 4.28571 40.8572H16.5402V27.2581H10.9152V20.8572H16.5402V15.9786C16.5402 10.4295 19.8438 7.36432 24.9036 7.36432C27.3268 7.36432 29.8607 7.79646 29.8607 7.79646V13.2429H27.0688C24.3179 13.2429 23.4598 14.95 23.4598 16.7009V20.8572H29.6009L28.6188 27.2581H23.4598V40.8572H35.7143C36.8509 40.8572 37.941 40.4057 38.7447 39.6019C39.5485 38.7982 40 37.7081 40 36.5715V5.14289C40 4.00625 39.5485 2.91616 38.7447 2.11243C37.941 1.30871 36.8509 0.857178 35.7143 0.857178Z" fill="#1877F2"/>
</svg>
